<?xml version="1.0" encoding="UTF-8" standalone="no"?>
<svg id="svg8324" xmlns:rdf="http://www.w3.org/1999/02/22-rdf-syntax-ns#" xmlns="http://www.w3.org/2000/svg" xmlns:osb="http://www.openswatchbook.org/uri/2009/osb" height="48" width="48" version="1.1" xmlns:cc="http://creativecommons.org/ns#" xmlns:xlink="http://www.w3.org/1999/xlink" xmlns:dc="http://purl.org/dc/elements/1.1/">
 <metadata id="metadata8385">
  <rdf:RDF>
   <cc:Work rdf:about="">
    <dc:format>image/svg+xml</dc:format>
    <dc:type rdf:resource="http://purl.org/dc/dcmitype/StillImage"/>
    <dc:title/>
   </cc:Work>
  </rdf:RDF>
 </metadata>
 <defs id="defs8326">
  <radialGradient id="a" gradientUnits="userSpaceOnUse" cy="43.5" cx="4.993" gradientTransform="matrix(2.3754 0 0 .75652 29.38 11.447)" r="2.5">
   <stop id="stop8329" stop-color="#181818" offset="0"/>
   <stop id="stop8331" stop-color="#181818" stop-opacity="0" offset="1"/>
  </radialGradient>
  <radialGradient id="b" gradientUnits="userSpaceOnUse" cy="43.5" cx="4.993" gradientTransform="matrix(-2.3754 0 0 -.75652 19.924 77.265)" r="2.5">
   <stop id="stop8334" stop-color="#181818" offset="0"/>
   <stop id="stop8336" stop-color="#181818" stop-opacity="0" offset="1"/>
  </radialGradient>
  <linearGradient id="c" y2="39.999" gradientUnits="userSpaceOnUse" y1="47.028" gradientTransform="matrix(1.1855 0 0 .54037 -3.7992 20.85)" x2="25.058" x1="25.058">
   <stop id="stop8339" stop-color="#181818" stop-opacity="0" offset="0"/>
   <stop id="stop8341" stop-color="#181818" offset=".5"/>
   <stop id="stop8343" stop-color="#181818" stop-opacity="0" offset="1"/>
  </linearGradient>
  <linearGradient id="e" x1="24" gradientUnits="userSpaceOnUse" y1="5" gradientTransform="matrix(1.0542 0 0 1.0543 -1.3016 -1.3015)" x2="24" y2="43">
   <stop id="stop8346" stop-color="#fff" offset="0"/>
   <stop id="stop8348" stop-color="#fff" stop-opacity=".235" offset=".063"/>
   <stop id="stop8350" stop-color="#fff" stop-opacity=".157" offset=".951"/>
   <stop id="stop8352" stop-color="#fff" stop-opacity=".392" offset="1"/>
  </linearGradient>
  <linearGradient id="linearGradient9236" y2="52.581" gradientUnits="userSpaceOnUse" x2="16.988" gradientTransform="matrix(.72727 0 0 .72727 .72728 .72727)" y1="12.094" x1="42.626">
   <stop id="stop8355" stop-color="#abacae" offset="0"/>
   <stop id="stop8357" stop-color="#abacae" offset=".098805"/>
   <stop id="stop8359" stop-color="#7e8087" offset=".46466"/>
   <stop id="stop8361" stop-color="#555761" offset="1"/>
  </linearGradient>
  <linearGradient id="linearGradient9240" y2="15.996" gradientUnits="userSpaceOnUse" x2="38.099" gradientTransform="matrix(.75077 0 0 .75652 .62656 -.27913)" y1="38.771" x1="26.935">
   <stop id="stop9216" stop-color="#95a3ab" offset="0"/>
   <stop id="stop9218" stop-color="#273445" offset="1"/>
  </linearGradient>
  <linearGradient id="linearGradient9242" y2="49.239" gradientUnits="userSpaceOnUse" x2="23.959" gradientTransform="matrix(.75364 0 0 .75364 .62896 -.27807)" y1="23.259" x1="47.967">
   <stop id="stop9226" stop-color="#667885" offset="0"/>
   <stop id="stop9228" stop-color="#0e141f" offset="1"/>
  </linearGradient>
 </defs>
 <path id="path8365" fill="url(#a)" d="m41.249 42.465h5.9274v3.7826h-5.9274z"/>
 <path id="path8367" fill="url(#b)" d="m8.0555 46.247h-5.9274v-3.7826h5.9274z"/>
 <path id="path8369" fill="url(#c)" d="m8.0555 42.465h33.193v3.7826h-33.193z"/>
 <rect id="rect8371" style="color:#000000" rx="2" ry="2" height="40" width="40" y="4" x="4" fill="url(#linearGradient9236)"/>
 <rect id="rect8373" opacity=".3" stroke-linejoin="round" rx="1.5035" ry="1.5035" height="39.007" width="39.007" stroke="url(#e)" stroke-linecap="round" y="4.4965" x="4.4965" stroke-width=".99295" fill="none"/>
 <rect id="rect8375" opacity=".5" stroke-linejoin="round" style="color:#000000" rx="2.5008" ry="2.5008" height="41.002" width="41.002" stroke="#05020d" stroke-linecap="round" y="3.4992" x="3.4992" stroke-width=".99837" fill="none"/>
 <text id="text9036-6" opacity=".3" style="word-spacing:0px;letter-spacing:0px" fill-opacity=".99216" xml:space="preserve" transform="scale(.99619 1.0038)" line-height="125%" font-size="36.92px" y="38.838577" x="15.054443" font-family="FreeSerif" fill="#1d1c2c"><tspan id="tspan9038-4" y="38.838577" x="15.054443">C</tspan></text>
 <text id="text9036" style="word-spacing:0px;letter-spacing:0px" xml:space="preserve" transform="scale(.99619 1.0038)" line-height="125%" font-size="36.92px" y="38.371277" x="15.017381" font-family="FreeSerif" fill="url(#linearGradient9242)"><tspan id="tspan9038" y="38.371277" x="15.017381" fill="url(#linearGradient9242)">C</tspan></text>
 <path id="path8379" opacity=".3" style="color:#000000;isolation:auto;mix-blend-mode:normal" fill="#201c2c" d="m17.863 33.924-0.54-23.095q-2.3596 0.89124-3.6859 2.7893-1.3115 1.8988-1.3115 4.7217 0 0.64363 0.06588 1.0568 0.08141 0.39602 0.16357 0.64363 0.08216 0.2312 0.14803 0.3632 0.08143 0.13201 0.08143 0.2312-0.86818 0-1.5395-0.16482-0.672-0.182-1.131-0.561-0.4427-0.379-0.6884-1.007-0.2295-0.627-0.2295-1.552 0-1.1224 0.47443-2.212 0.49145-1.0889 1.3271-2.0636 0.8519-0.97327 1.9828-1.7989 1.1472-0.82561 2.441-1.42 1.31-0.61081 2.7193-0.94046 1.4255-0.34754 2.8347-0.34754 0.37673 0 0.68833 0.01641 0.32714 0.01641 0.65428 0.049226l0.29531 20.8 7.0609-20.702h2.3425l-9.3213 25.193h-4.8331z"/>
 <path id="path8381" fill="url(#linearGradient9240)" d="m17.863 33.179-0.54-23.096q-2.3596 0.89123-3.6859 2.7893-1.3115 1.8988-1.3115 4.7217 0 0.64363 0.06588 1.0568 0.08141 0.39602 0.16357 0.64363 0.08216 0.2312 0.14803 0.3632 0.08143 0.13201 0.08143 0.2312-0.86818 0-1.5395-0.16482-0.67205-0.18198-1.1309-0.56159-0.4426-0.37887-0.68833-1.0068-0.22944-0.62648-0.22944-1.5513 0-1.1224 0.47443-2.212 0.49145-1.0889 1.3271-2.0636 0.8519-0.97327 1.9828-1.7989 1.1472-0.8256 2.441-1.42 1.31-0.61081 2.7193-0.94046 1.4255-0.34754 2.8347-0.34754 0.37673 0 0.68833 0.016412 0.32714 0.016412 0.65428 0.049227l0.29531 20.8 7.0609-20.702h2.3425l-9.3213 25.193h-4.8331z"/>
</svg>
