<?xml version="1.0" encoding="UTF-8" standalone="no"?>
<svg id="svg8324" xmlns:rdf="http://www.w3.org/1999/02/22-rdf-syntax-ns#" xmlns="http://www.w3.org/2000/svg" xmlns:osb="http://www.openswatchbook.org/uri/2009/osb" height="24" width="24" version="1.1" xmlns:cc="http://creativecommons.org/ns#" xmlns:xlink="http://www.w3.org/1999/xlink" xmlns:dc="http://purl.org/dc/elements/1.1/">
 <metadata id="metadata8385">
  <rdf:RDF>
   <cc:Work rdf:about="">
    <dc:format>image/svg+xml</dc:format>
    <dc:type rdf:resource="http://purl.org/dc/dcmitype/StillImage"/>
    <dc:title/>
   </cc:Work>
  </rdf:RDF>
 </metadata>
 <defs id="defs8326">
  <radialGradient id="a" gradientUnits="userSpaceOnUse" cy="43.5" cx="4.993" gradientTransform="matrix(1.2204 0 0 .38866 14.567 6.054)" r="2.5">
   <stop id="stop8329" stop-color="#181818" offset="0"/>
   <stop id="stop8331" stop-color="#181818" stop-opacity="0" offset="1"/>
  </radialGradient>
  <radialGradient id="b" gradientUnits="userSpaceOnUse" cy="43.5" cx="4.993" gradientTransform="matrix(-1.2204 0 0 -.38866 9.7089 39.867)" r="2.5">
   <stop id="stop8334" stop-color="#181818" offset="0"/>
   <stop id="stop8336" stop-color="#181818" stop-opacity="0" offset="1"/>
  </radialGradient>
  <linearGradient id="c" y2="39.999" gradientUnits="userSpaceOnUse" y1="47.028" gradientTransform="matrix(.60903 0 0 .27761 -2.4789 10.884)" x2="25.058" x1="25.058">
   <stop id="stop8339" stop-color="#181818" stop-opacity="0" offset="0"/>
   <stop id="stop8341" stop-color="#181818" offset=".5"/>
   <stop id="stop8343" stop-color="#181818" stop-opacity="0" offset="1"/>
  </linearGradient>
  <linearGradient id="e" x1="24" gradientUnits="userSpaceOnUse" y1="5" gradientTransform="matrix(.51352 0 0 .51354 -.32456 -.32452)" x2="24" y2="43">
   <stop id="stop8346" stop-color="#fff" offset="0"/>
   <stop id="stop8348" stop-color="#fff" stop-opacity=".235" offset=".063"/>
   <stop id="stop8350" stop-color="#fff" stop-opacity=".157" offset=".951"/>
   <stop id="stop8352" stop-color="#fff" stop-opacity=".392" offset="1"/>
  </linearGradient>
  <linearGradient id="linearGradient9236" y2="52.581" gradientUnits="userSpaceOnUse" x2="16.988" gradientTransform="matrix(.36364 0 0 .36364 .36364 .36364)" y1="12.094" x1="42.626">
   <stop id="stop8355" stop-color="#abacae" offset="0"/>
   <stop id="stop8357" stop-color="#abacae" offset=".098805"/>
   <stop id="stop8359" stop-color="#7e8087" offset=".46466"/>
   <stop id="stop8361" stop-color="#555761" offset="1"/>
  </linearGradient>
  <linearGradient id="linearGradient9240" y2="15.996" gradientUnits="userSpaceOnUse" x2="38.099" gradientTransform="matrix(.38570 0 0 .38866 -.20519 .029644)" y1="38.771" x1="26.935">
   <stop id="stop9216" stop-color="#95a3ab" offset="0"/>
   <stop id="stop9218" stop-color="#273445" offset="1"/>
  </linearGradient>
  <linearGradient id="linearGradient9242" y2="49.239" gradientUnits="userSpaceOnUse" x2="23.959" gradientTransform="matrix(.38718 0 0 .38718 -.20598 .029532)" y1="23.259" x1="47.967">
   <stop id="stop9226" stop-color="#667885" offset="0"/>
   <stop id="stop9228" stop-color="#0e141f" offset="1"/>
  </linearGradient>
 </defs>
 <path id="path8365" fill="url(#a)" d="m20.664 21.989h3.0451v1.9433h-3.0451z"/>
 <path id="path8367" fill="url(#b)" d="m3.6113 23.932h-3.0451v-1.9433h3.0451z"/>
 <path id="path8369" fill="url(#c)" d="m3.6113 21.989h17.053v1.9433h-17.053z"/>
 <rect id="rect8371" style="color:#000000" rx="1" ry="1" height="20" width="20" y="2" x="2" fill="url(#linearGradient9236)"/>
 <rect id="rect8373" opacity=".3" stroke-linejoin="round" rx=".50028" ry=".50029" height="19.001" width="19.001" stroke="url(#e)" stroke-linecap="round" y="2.4997" x="2.4997" fill="none"/>
 <rect id="rect8375" opacity=".5" stroke-linejoin="round" style="color:#000000" rx="1.4996" ry="1.4996" height="20.999" width="20.999" stroke="#05020d" stroke-linecap="round" y="1.5004" x="1.5004" stroke-width="1.0008" fill="none"/>
 <text id="text9036-6" opacity=".3" style="word-spacing:0px;letter-spacing:0px" fill-opacity=".99216" xml:space="preserve" transform="scale(.99619 1.0038)" line-height="125%" font-size="18.968px" y="20.125412" x="7.2050071" font-family="FreeSerif" fill="#1d1c2c"><tspan id="tspan9038-4" y="20.125412" x="7.2050071">C</tspan></text>
 <text id="text9036" style="word-spacing:0px;letter-spacing:0px" xml:space="preserve" transform="scale(.99619 1.0038)" line-height="125%" font-size="18.968px" y="19.885342" x="7.1859665" font-family="FreeSerif" fill="url(#linearGradient9242)"><tspan id="tspan9038" y="19.885342" x="7.1859665" fill="url(#linearGradient9242)">C</tspan></text>
 <path id="path8379" opacity=".3" style="color:#000000;isolation:auto;mix-blend-mode:normal" fill="#201c2c" d="m8.65 17.601-0.2776-11.865q-1.2122 0.4583-1.8936 1.4334-0.6738 0.9755-0.6738 2.4258 0 0.33066 0.033846 0.54292 0.041824 0.20345 0.084033 0.33066 0.042209 0.11878 0.076049 0.18659 0.041834 0.06781 0.041834 0.11878-0.44602 0-0.7909-0.08467-0.3453-0.094-0.5811-0.289-0.2273-0.195-0.3536-0.5173-0.1178-0.3219-0.1178-0.797 0-0.57664 0.24373-1.1364 0.2525-0.5594 0.6818-1.0602 0.4376-0.5 1.0186-0.9241 0.5894-0.4242 1.2541-0.7296 0.673-0.3138 1.397-0.4831 0.7323-0.1786 1.4564-0.1786 0.19354 0 0.35362 0.00844 0.16806 0.00844 0.33613 0.02529l0.15172 10.686 3.6275-10.635h1.2035l-4.7887 12.943h-2.483z"/>
 <path id="path8381" fill="url(#linearGradient9240)" d="m8.65 17.218-0.2776-11.865q-1.2122 0.4582-1.8936 1.4333-0.6738 0.9755-0.6738 2.4257 0 0.33066 0.033846 0.54292 0.041824 0.20345 0.084033 0.33066 0.042209 0.11878 0.076049 0.18659 0.041834 0.06782 0.041834 0.11878-0.44602 0-0.7909-0.08468-0.3453-0.093-0.581-0.288-0.2274-0.1949-0.3537-0.5175-0.1178-0.3218-0.1178-0.7969 0-0.57664 0.24373-1.1364 0.2525-0.5595 0.6818-1.0602 0.4376-0.5 1.0186-0.9242 0.5894-0.4241 1.2541-0.7295 0.673-0.3138 1.397-0.4832 0.7323-0.1785 1.4564-0.1785 0.19354 0 0.35362 0.00844 0.16806 0.00844 0.33613 0.02529l0.15172 10.686 3.6275-10.635h1.2035l-4.7887 12.943h-2.483z"/>
</svg>
