<?xml version="1.0" encoding="UTF-8" standalone="no"?>
<!-- Created with Inkscape (http://www.inkscape.org/) -->

<svg
   xmlns:dc="http://purl.org/dc/elements/1.1/"
   xmlns:cc="http://creativecommons.org/ns#"
   xmlns:rdf="http://www.w3.org/1999/02/22-rdf-syntax-ns#"
   xmlns:svg="http://www.w3.org/2000/svg"
   xmlns="http://www.w3.org/2000/svg"
   xmlns:xlink="http://www.w3.org/1999/xlink"
   xmlns:sodipodi="http://sodipodi.sourceforge.net/DTD/sodipodi-0.dtd"
   xmlns:inkscape="http://www.inkscape.org/namespaces/inkscape"
   version="1.1"
   id="svg2"
   width="24"
   height="24"
   viewBox="0 0 24 24"
   sodipodi:docname="24.svg"
   inkscape:export-filename="C:\Users\tsvi\Desktop\rect3959.png"
   inkscape:export-xdpi="200"
   inkscape:export-ydpi="200"
   inkscape:version="0.92.3 (2405546, 2018-03-11)">
  <metadata
     id="metadata8">
    <rdf:RDF>
      <cc:Work
         rdf:about="">
        <dc:format>image/svg+xml</dc:format>
        <dc:type
           rdf:resource="http://purl.org/dc/dcmitype/StillImage" />
        <dc:title></dc:title>
      </cc:Work>
    </rdf:RDF>
  </metadata>
  <defs
     id="defs6">
    <linearGradient
       inkscape:collect="always"
       id="linearGradient4056">
      <stop
         style="stop-color:#ffffff;stop-opacity:1"
         offset="0"
         id="stop4048" />
      <stop
         id="stop4050"
         offset="0.10153595"
         style="stop-color:#ffffff;stop-opacity:0.23267327" />
      <stop
         style="stop-color:#ffffff;stop-opacity:0.26732674"
         offset="0.88420153"
         id="stop4052" />
      <stop
         style="stop-color:#ffffff;stop-opacity:1"
         offset="1"
         id="stop4054" />
    </linearGradient>
    <linearGradient
       inkscape:collect="always"
       id="linearGradient3995">
      <stop
         style="stop-color:#3689e6;stop-opacity:1"
         offset="0"
         id="stop3991" />
      <stop
         style="stop-color:#3689e6;stop-opacity:0"
         offset="1"
         id="stop3993" />
    </linearGradient>
    <linearGradient
       inkscape:collect="always"
       id="linearGradient3983">
      <stop
         style="stop-color:#d4d4d4;stop-opacity:1"
         offset="0"
         id="stop3979" />
      <stop
         style="stop-color:#fafafa;stop-opacity:1"
         offset="1"
         id="stop3981" />
    </linearGradient>
    <linearGradient
       inkscape:collect="always"
       id="linearGradient3965">
      <stop
         style="stop-color:#7239b3;stop-opacity:1;"
         offset="0"
         id="stop3961" />
      <stop
         style="stop-color:#a56de2;stop-opacity:1"
         offset="1"
         id="stop3963" />
    </linearGradient>
    <linearGradient
       inkscape:collect="always"
       xlink:href="#linearGradient3965"
       id="linearGradient3967"
       x1="140.54086"
       y1="215.2238"
       x2="140.54086"
       y2="58.441864"
       gradientUnits="userSpaceOnUse"
       gradientTransform="matrix(0.07378516,0,0,0.07378516,1.2507261,2.0318119)" />
    <linearGradient
       inkscape:collect="always"
       xlink:href="#linearGradient3983"
       id="linearGradient3985"
       x1="70"
       y1="119"
       x2="70"
       y2="24"
       gradientUnits="userSpaceOnUse"
       gradientTransform="matrix(0.1682324,0,0,0.16849673,0.62973871,0.95607707)" />
    <filter
       inkscape:collect="always"
       style="color-interpolation-filters:sRGB"
       id="filter4080"
       x="-0.053534791"
       width="1.1070696"
       y="-1.0771201"
       height="3.1542404">
      <feGaussianBlur
         inkscape:collect="always"
         stdDeviation="2.2949574"
         id="feGaussianBlur4082" />
    </filter>
    <linearGradient
       inkscape:collect="always"
       xlink:href="#linearGradient3983"
       id="linearGradient4234"
       gradientUnits="userSpaceOnUse"
       x1="66.488136"
       y1="119"
       x2="66.488136"
       y2="23"
       gradientTransform="matrix(0.16822338,0,0,0.16870442,1.21913,0.9515212)" />
    <linearGradient
       inkscape:collect="always"
       xlink:href="#linearGradient3995"
       id="linearGradient4064"
       gradientUnits="userSpaceOnUse"
       gradientTransform="matrix(0.17130697,0,0,0.17130697,-0.0737241,-0.10452747)"
       x1="55"
       y1="75.087006"
       x2="55"
       y2="45.541245" />
    <linearGradient
       inkscape:collect="always"
       xlink:href="#linearGradient4056"
       id="linearGradient4099"
       x1="11"
       y1="21"
       x2="11"
       y2="5"
       gradientUnits="userSpaceOnUse" />
  </defs>
  <sodipodi:namedview
     pagecolor="#ffffff"
     bordercolor="#666666"
     borderopacity="1"
     objecttolerance="10"
     gridtolerance="10"
     guidetolerance="10"
     inkscape:pageopacity="0"
     inkscape:pageshadow="2"
     inkscape:window-width="1920"
     inkscape:window-height="986"
     id="namedview4"
     showgrid="false"
     showguides="false"
     inkscape:guide-bbox="true"
     inkscape:snap-global="true"
     inkscape:zoom="22.627417"
     inkscape:cx="11.69292"
     inkscape:cy="6.676499"
     inkscape:window-x="-11"
     inkscape:window-y="-11"
     inkscape:window-maximized="1"
     inkscape:current-layer="svg2"
     showborder="false">
    <inkscape:grid
       type="xygrid"
       id="grid3969" />
    <sodipodi:guide
       position="0.508233,2"
       orientation="0,1"
       id="guide3971"
       inkscape:locked="false" />
    <sodipodi:guide
       position="-2,20"
       orientation="0,1"
       id="guide3978"
       inkscape:locked="false" />
  </sodipodi:namedview>
  <rect
     style="opacity:0.6;vector-effect:none;fill:#000000;fill-opacity:1;fill-rule:nonzero;stroke:none;stroke-width:2;stroke-linecap:round;stroke-linejoin:round;stroke-miterlimit:4;stroke-dasharray:none;stroke-dashoffset:0;stroke-opacity:0.99504945;paint-order:markers stroke fill;filter:url(#filter4080)"
     id="rect4030"
     width="102.88445"
     height="5.1135406"
     x="12.557774"
     y="116.34113"
     ry="2.5567703"
     transform="matrix(0.16422309,0,0,0.17738659,1.4810505,0.45556958)" />
  <rect
     style="opacity:1;vector-effect:none;fill:url(#linearGradient3985);fill-opacity:1;fill-rule:nonzero;stroke:#121212;stroke-width:1.97542119;stroke-linecap:round;stroke-linejoin:round;stroke-miterlimit:4;stroke-dasharray:none;stroke-dashoffset:0;stroke-opacity:0.49009902;paint-order:markers stroke fill"
     id="rect3977"
     width="15.982078"
     height="16.007191"
     x="3.9943879"
     y="5"
     ry="1.0745486" />
  <path
     style="opacity:1;vector-effect:none;fill:url(#linearGradient4234);fill-opacity:1;fill-rule:nonzero;stroke:url(#linearGradient4099);stroke-width:2;stroke-linecap:round;stroke-linejoin:round;stroke-miterlimit:4;stroke-dasharray:none;stroke-dashoffset:0;stroke-opacity:0.95652173;paint-order:markers stroke fill"
     d="M 5.0683594 6 C 5.0097622 6 4.9941408 6.0156216 4.9941406 6.0742188 L 4.9941406 19.933594 C 4.9941406 19.992194 5.0097624 20.007812 5.0683594 20.007812 L 18.902344 20.007812 C 18.960944 20.007812 18.976562 19.992194 18.976562 19.933594 L 18.976562 6.0742188 C 18.976562 6.0156217 18.960944 6 18.902344 6 L 5.0683594 6 z "
     id="rect4219" />
  <path
     sodipodi:nodetypes="cssscsscccscccccccccsscc"
     inkscape:connector-curvature="0"
     id="path4084"
     d="m 11.877419,7.2343043 c -0.449852,3.915e-4 -0.749695,0.031974 -1.02968,0.073494 -2.6808299,0.3975279 -5.0497375,2.0480573 -4.2972272,5.4956377 1.0699884,4.902092 9.0397872,2.010898 9.1534452,1.441725 0.04573,-0.229028 0.103418,-0.715857 0.08296,-0.787079 -0.173967,0.212008 -0.862598,0.427756 -1.09505,0.501761 -0.189531,0.06035 -5.8435227,2.009186 -6.8133557,-1.392275 -0.3699639,-1.297572 -0.098034,-3.08585 2.0166531,-4.1535687 l 0.2836096,-0.1314289 0.01024,0.3019134 C 10.200214,8.914954 10.43458,18.791824 10.43458,18.93343 V 19.0209 L 11.584588,19.01038 12.734602,19 14.908093,13.17587 c 1.195387,-3.203259 2.174238,-5.8378529 2.175222,-5.8546796 0.0011,-0.016831 -0.248347,-0.025745 -0.553966,-0.019749 l -0.555693,0.010959 -1.638119,4.7677896 c -0.901011,2.622326 -1.641135,4.765183 -1.644601,4.761738 -0.0035,-0.0035 -0.03667,-2.157829 -0.07393,-4.787533 -0.03725,-2.629702 -0.07577,-4.7902574 -0.0856,-4.8010794 -0.0099,-0.010827 -0.304123,-0.019327 -0.653978,-0.019021 z"
     style="opacity:0.15;vector-effect:none;fill:#000000;fill-opacity:0.98695655;fill-rule:nonzero;stroke:none;stroke-width:0.27887306;stroke-linecap:round;stroke-linejoin:round;stroke-miterlimit:4;stroke-dasharray:none;stroke-dashoffset:0;stroke-opacity:1;paint-order:fill markers stroke" />
  <path
     style="opacity:1;vector-effect:none;fill:url(#linearGradient3967);fill-opacity:1;fill-rule:nonzero;stroke:none;stroke-width:0.27887306;stroke-linecap:round;stroke-linejoin:round;stroke-miterlimit:4;stroke-dasharray:none;stroke-dashoffset:0;stroke-opacity:1;paint-order:fill markers stroke"
     d="m 11.903341,6.2134043 c -0.449852,3.901e-4 -0.749695,0.031981 -1.029679,0.073494 -2.6808304,0.3975285 -5.0497381,2.0480565 -4.2972282,5.4956367 1.0699884,4.902094 9.0397852,2.0109 9.1534452,1.441726 0.04573,-0.229029 0.103418,-0.715858 0.08296,-0.787078 -0.173966,0.212008 -0.862597,0.427754 -1.095049,0.50176 -0.189532,0.06035 -5.843524,2.009188 -6.8133568,-1.392275 C 7.5344665,10.249095 7.8063978,8.4608186 9.921084,7.393098 l 0.283611,-0.131429 0.01023,0.3019135 C 10.226115,7.8940534 10.46049,17.770925 10.46049,17.91253 V 18 l 1.150011,-0.01052 1.150013,-0.01038 2.173491,-5.824129 c 1.195384,-3.203259 2.174237,-5.8378537 2.175221,-5.8546804 9.88e-4,-0.016831 -0.248346,-0.025745 -0.553966,-0.019749 l -0.555695,0.010959 -1.638117,4.7677914 c -0.901014,2.622322 -1.641138,4.765179 -1.644602,4.761736 -0.0035,-0.0035 -0.03667,-2.15783 -0.07393,-4.787534 -0.03725,-2.6297026 -0.07577,-4.7902584 -0.0856,-4.8010803 -0.0099,-0.01082 -0.304124,-0.019334 -0.653979,-0.019021 z"
     id="rect3958"
     inkscape:connector-curvature="0"
     sodipodi:nodetypes="cssscsscccscccccccccsscc" />
  <g
     transform="translate(0.3257909,-102.65187)"
     id="g4106"
     style="fill:#ffec28;fill-opacity:0.98695655" />
  <path
     sodipodi:nodetypes="ssscsscs"
     inkscape:connector-curvature="0"
     id="path4062"
     d="m 10.873662,6.286901 c -2.6808304,0.397528 -5.0497381,2.048056 -4.2972282,5.495637 1.0699884,4.902093 9.0397852,2.010899 9.1534452,1.441726 0.04573,-0.229029 0.103418,-0.715858 0.08296,-0.787078 -0.173966,0.212008 -0.862597,0.427754 -1.095049,0.50176 -0.189532,0.06035 -5.843524,2.009188 -6.8133568,-1.392275 C 7.5344645,10.249097 7.806396,8.4608215 9.921082,7.3931009 c 0,0 1.232562,-1.1477171 0.952578,-1.1061999 z"
     style="opacity:1;vector-effect:none;fill:url(#linearGradient4064);fill-opacity:1;fill-rule:nonzero;stroke:none;stroke-width:0.27887306;stroke-linecap:round;stroke-linejoin:round;stroke-miterlimit:4;stroke-dasharray:none;stroke-dashoffset:0;stroke-opacity:1;paint-order:fill markers stroke" />
  <path
     style="opacity:0.15;vector-effect:none;fill:#000000;fill-opacity:1;fill-rule:nonzero;stroke:none;stroke-width:0.27887306;stroke-linecap:round;stroke-linejoin:round;stroke-miterlimit:4;stroke-dasharray:none;stroke-dashoffset:0;stroke-opacity:1;paint-order:fill markers stroke"
     d="M 14.208984 14.095703 C 13.953878 14.172817 13.718204 14.236594 13.228516 14.337891 C 13.141036 14.590078 12.905056 15.278604 12.875 15.363281 C 13.224464 15.289137 13.525046 15.197477 13.832031 15.105469 L 14.208984 14.095703 z M 12.695312 14.445312 C 11.973856 14.560172 11.148692 14.620416 10.380859 14.513672 C 10.390212 14.913229 10.39904 15.281968 10.40625 15.59375 C 11.181718 15.624662 11.973997 15.540537 12.710938 15.394531 C 12.709237 15.320601 12.698968 14.663597 12.695312 14.445312 z "
     id="path4075" />
</svg>
