<?xml version="1.0" encoding="UTF-8" standalone="no"?>
<!-- Created with Inkscape (http://www.inkscape.org/) -->

<svg
   xmlns:dc="http://purl.org/dc/elements/1.1/"
   xmlns:cc="http://creativecommons.org/ns#"
   xmlns:rdf="http://www.w3.org/1999/02/22-rdf-syntax-ns#"
   xmlns:svg="http://www.w3.org/2000/svg"
   xmlns="http://www.w3.org/2000/svg"
   xmlns:xlink="http://www.w3.org/1999/xlink"
   xmlns:sodipodi="http://sodipodi.sourceforge.net/DTD/sodipodi-0.dtd"
   xmlns:inkscape="http://www.inkscape.org/namespaces/inkscape"
   version="1.1"
   id="svg2"
   width="128"
   height="128"
   viewBox="0 0 128 128"
   sodipodi:docname="128.svg"
   inkscape:export-filename="C:\Users\tsvi\Desktop\rect3959.png"
   inkscape:export-xdpi="200"
   inkscape:export-ydpi="200"
   inkscape:version="0.92.3 (2405546, 2018-03-11)">
  <metadata
     id="metadata8">
    <rdf:RDF>
      <cc:Work
         rdf:about="">
        <dc:format>image/svg+xml</dc:format>
        <dc:type
           rdf:resource="http://purl.org/dc/dcmitype/StillImage" />
        <dc:title></dc:title>
      </cc:Work>
    </rdf:RDF>
  </metadata>
  <defs
     id="defs6">
    <linearGradient
       id="linearGradient4252"
       inkscape:collect="always">
      <stop
         id="stop4244"
         offset="0"
         style="stop-color:#ffffff;stop-opacity:0.99504948" />
      <stop
         style="stop-color:#ffffff;stop-opacity:0.23267327"
         offset="0.09412177"
         id="stop4246" />
      <stop
         id="stop4248"
         offset="0.91752577"
         style="stop-color:#ffffff;stop-opacity:0.26732674" />
      <stop
         id="stop4250"
         offset="1"
         style="stop-color:#ffffff;stop-opacity:1" />
    </linearGradient>
    <linearGradient
       inkscape:collect="always"
       id="linearGradient3995">
      <stop
         style="stop-color:#3689e6;stop-opacity:1"
         offset="0"
         id="stop3991" />
      <stop
         style="stop-color:#3689e6;stop-opacity:0"
         offset="1"
         id="stop3993" />
    </linearGradient>
    <linearGradient
       inkscape:collect="always"
       id="linearGradient3983">
      <stop
         style="stop-color:#d4d4d4;stop-opacity:1"
         offset="0"
         id="stop3979" />
      <stop
         style="stop-color:#fafafa;stop-opacity:1"
         offset="1"
         id="stop3981" />
    </linearGradient>
    <linearGradient
       inkscape:collect="always"
       id="linearGradient3965">
      <stop
         style="stop-color:#7239b3;stop-opacity:1;"
         offset="0"
         id="stop3961" />
      <stop
         style="stop-color:#a56de2;stop-opacity:1"
         offset="1"
         id="stop3963" />
    </linearGradient>
    <linearGradient
       inkscape:collect="always"
       xlink:href="#linearGradient3965"
       id="linearGradient3967"
       x1="140.54086"
       y1="215.2238"
       x2="140.54086"
       y2="58.441864"
       gradientUnits="userSpaceOnUse"
       gradientTransform="matrix(0.4215721,0,0,0.4215721,5.365429,14.884986)" />
    <linearGradient
       inkscape:collect="always"
       xlink:href="#linearGradient3983"
       id="linearGradient3985"
       x1="70"
       y1="119"
       x2="70"
       y2="24"
       gradientUnits="userSpaceOnUse"
       gradientTransform="matrix(0.98981692,0,0,0.9787058,-2.8161318,1.5138092)" />
    <linearGradient
       inkscape:collect="always"
       xlink:href="#linearGradient3995"
       id="linearGradient3997"
       x1="55"
       y1="75.087006"
       x2="55"
       y2="45.541245"
       gradientUnits="userSpaceOnUse"
       gradientTransform="matrix(0.97876365,0,0,0.97876365,-2.2018275,2.678995)" />
    <filter
       inkscape:collect="always"
       style="color-interpolation-filters:sRGB"
       id="filter4080"
       x="-0.053534791"
       width="1.1070696"
       y="-1.0771201"
       height="3.1542403">
      <feGaussianBlur
         inkscape:collect="always"
         stdDeviation="2.2949574"
         id="feGaussianBlur4082" />
    </filter>
    <linearGradient
       inkscape:collect="always"
       xlink:href="#linearGradient3983"
       id="linearGradient4234"
       gradientUnits="userSpaceOnUse"
       x1="66.488136"
       y1="119"
       x2="66.488136"
       y2="23"
       gradientTransform="matrix(0.98981692,0,0,0.9787058,0.64822469,1.5138092)" />
    <linearGradient
       inkscape:collect="always"
       xlink:href="#linearGradient4252"
       id="linearGradient4242"
       x1="57.720341"
       y1="120"
       x2="57.720341"
       y2="25"
       gradientUnits="userSpaceOnUse"
       gradientTransform="matrix(0.98981692,0,0,0.9787058,0.64822469,1.5138092)" />
  </defs>
  <sodipodi:namedview
     pagecolor="#ffffff"
     bordercolor="#666666"
     borderopacity="1"
     objecttolerance="10"
     gridtolerance="10"
     guidetolerance="10"
     inkscape:pageopacity="0"
     inkscape:pageshadow="2"
     inkscape:window-width="1920"
     inkscape:window-height="986"
     id="namedview4"
     showgrid="false"
     showguides="false"
     inkscape:guide-bbox="true"
     inkscape:snap-global="true"
     inkscape:zoom="1"
     inkscape:cx="181.19509"
     inkscape:cy="77.637782"
     inkscape:window-x="-11"
     inkscape:window-y="-11"
     inkscape:window-maximized="1"
     inkscape:current-layer="svg2"
     showborder="false">
    <inkscape:grid
       type="xygrid"
       id="grid3969" />
    <sodipodi:guide
       position="27,9"
       orientation="0,1"
       id="guide3971"
       inkscape:locked="false" />
    <sodipodi:guide
       position="108.61921,104"
       orientation="0,1"
       id="guide3973"
       inkscape:locked="false" />
  </sodipodi:namedview>
  <rect
     style="opacity:0.6;vector-effect:none;fill:#000000;fill-opacity:1;fill-rule:nonzero;stroke:none;stroke-width:2.03350067;stroke-linecap:round;stroke-linejoin:round;stroke-miterlimit:4;stroke-dasharray:none;stroke-dashoffset:0;stroke-opacity:0.99504945;paint-order:markers stroke fill;filter:url(#filter4080)"
     id="rect4030"
     width="102.88445"
     height="5.1135406"
     x="12.557774"
     y="116.34113"
     ry="2.5567703"
     transform="matrix(0.91433112,0,0,1.0134995,5.4828069,-2.6203597)" />
  <rect
     style="opacity:1;vector-effect:none;fill:url(#linearGradient3985);fill-opacity:1;fill-rule:nonzero;stroke:#121212;stroke-width:2;stroke-linecap:round;stroke-linejoin:round;stroke-miterlimit:4;stroke-dasharray:none;stroke-dashoffset:0;stroke-opacity:0.49009902;paint-order:markers stroke fill"
     id="rect3977"
     width="94.032608"
     height="92.977051"
     x="16.980207"
     y="25.002748"
     ry="6.2414684" />
  <path
     style="opacity:1;vector-effect:none;fill:url(#linearGradient4234);fill-opacity:1;fill-rule:nonzero;stroke:url(#linearGradient4242);stroke-width:2;stroke-linecap:round;stroke-linejoin:round;stroke-miterlimit:4;stroke-dasharray:none;stroke-dashoffset:0;stroke-opacity:0.95652173;paint-order:markers stroke fill"
     d="m 23.292221,25.981453 c -2.965792,0 -5.3222,2.329958 -5.3222,5.262456 v 80.494731 c 0,2.9325 2.356408,5.26246 5.3222,5.26246 H 104.7008 c 2.96578,0 5.3222,-2.32996 5.3222,-5.26246 V 31.243909 c 0,-2.932498 -2.35642,-5.262456 -5.3222,-5.262456 z"
     id="rect4219"
     inkscape:connector-curvature="0" />
  <g
     transform="matrix(0.97876365,0,0,0.97876365,1.6778369,3.6678405)"
     id="g4088"
     style="opacity:0.15;fill:#000000;fill-opacity:0.98695655">
    <path
       style="opacity:1;vector-effect:none;fill:#000000;fill-opacity:0.98695655;fill-rule:nonzero;stroke:none;stroke-width:1.62791443;stroke-linecap:round;stroke-linejoin:round;stroke-miterlimit:4;stroke-dasharray:none;stroke-dashoffset:0;stroke-opacity:1;paint-order:fill markers stroke"
       d="m 65.915798,36.880762 c -2.625991,0.0022 -4.376321,0.186678 -6.010723,0.429036 -15.649279,2.320559 -29.477715,11.955474 -25.084958,32.080638 6.246032,28.615846 52.769521,11.73857 53.433001,8.416042 0.26698,-1.336951 0.6037,-4.178801 0.48427,-4.594557 -1.01552,1.237594 -5.03539,2.497008 -6.39232,2.929023 -1.10638,0.352255 -34.11141,11.728573 -39.772784,-8.127375 C 40.412613,60.439022 42,50 54.344424,43.767218 L 56,43 l 0.05973,1.762414 c 0.06538,1.929113 1.433489,59.585086 1.433489,60.411706 v 0.51064 l 6.713149,-0.0614 6.71317,-0.0606 12.6877,-33.998204 C 90.585268,52.865613 96.29929,37.48624 96.30504,37.388014 c 0.006,-0.09822 -1.449712,-0.150303 -3.233762,-0.115251 l -3.24385,0.06394 -9.56247,27.831849 c -5.25964,15.307753 -9.58009,27.816617 -9.60032,27.79652 -0.0202,-0.02011 -0.21412,-12.596279 -0.43156,-27.947104 -0.21744,-15.350821 -0.44228,-27.963003 -0.4997,-28.026177 -0.0574,-0.06317 -1.77531,-0.112854 -3.81758,-0.111044 z"
       id="path4084"
       inkscape:connector-curvature="0"
       sodipodi:nodetypes="cssscsscccscccccccccsscc" />
    <path
       sodipodi:nodetypes="ssscsscs"
       inkscape:connector-curvature="0"
       id="path4086"
       d="M 59.905075,37.309798 C 44.255796,39.630357 30.42736,49.265272 34.820117,69.390436 c 6.246032,28.615846 52.769521,11.73857 53.433001,8.416042 0.26698,-1.336951 0.6037,-4.178801 0.48427,-4.594557 -1.01552,1.237594 -5.03539,2.497008 -6.39232,2.929023 -1.10638,0.352255 -34.11141,11.728573 -39.772784,-8.127375 C 40.412613,60.439022 42,50 54.344424,43.767218 c 0,0 7.195053,-6.699778 5.560651,-6.45742 z"
       style="opacity:1;vector-effect:none;fill:#000000;fill-opacity:0.98695655;fill-rule:nonzero;stroke:none;stroke-width:1.62791443;stroke-linecap:round;stroke-linejoin:round;stroke-miterlimit:4;stroke-dasharray:none;stroke-dashoffset:0;stroke-opacity:1;paint-order:fill markers stroke" />
  </g>
  <path
     style="opacity:1;vector-effect:none;fill:url(#linearGradient3967);fill-opacity:1;fill-rule:nonzero;stroke:none;stroke-width:1.59334338;stroke-linecap:round;stroke-linejoin:round;stroke-miterlimit:4;stroke-dasharray:none;stroke-dashoffset:0;stroke-opacity:1;paint-order:fill markers stroke"
     d="m 66.229214,38.776545 c -2.570224,0.0022 -4.283384,0.182713 -5.883076,0.419924 -15.316947,2.271279 -28.851717,11.701583 -24.552245,31.399362 6.113388,28.00815 51.648889,11.489286 52.298278,8.237316 0.261311,-1.308559 0.59088,-4.090058 0.473986,-4.496985 -0.993954,1.211312 -4.928457,2.44398 -6.25657,2.866821 -1.082885,0.344774 -33.387008,11.479501 -38.928156,-7.954779 -2.113807,-7.413691 -0.56013,-17.631026 11.522143,-23.731447 l 1.620418,-0.750925 0.05846,1.724987 c 0.06399,1.888145 1.403046,58.319721 1.403046,59.128781 v 0.4998 L 64.556084,106.0593 71.126691,106 83.544951,72.72379 C 90.374793,54.421945 95.96747,39.369174 95.973097,39.273034 c 0.0058,-0.09613 -1.418925,-0.147111 -3.165088,-0.112804 l -3.174962,0.06258 -9.359398,27.240802 c -5.147941,14.98261 -9.37664,27.225832 -9.39644,27.206162 -0.01977,-0.01968 -0.209573,-12.328781 -0.422396,-27.35361 C 70.241991,51.291338 70.021926,38.946993 69.965724,38.88516 69.909544,38.82333 68.228116,38.774703 66.229216,38.776475 Z"
     id="rect3958"
     inkscape:connector-curvature="0"
     sodipodi:nodetypes="cssscsscccscccccccccsscc" />
  <g
     style="opacity:0.15;fill:#000000;fill-opacity:0.98695655"
     id="g4100"
     transform="matrix(0.97876365,0,0,0.97876365,1.6778369,3.6678405)">
    <path
       style="opacity:1;vector-effect:none;fill:#000000;fill-opacity:0.98695655;fill-rule:nonzero;stroke:none;stroke-width:1.62791443;stroke-linecap:round;stroke-linejoin:round;stroke-miterlimit:4;stroke-dasharray:none;stroke-dashoffset:0;stroke-opacity:1;paint-order:fill markers stroke"
       d="m 81.744141,78.78125 c -1.015623,0.327071 -2.986591,0.922691 -5.94336,1.599609 -0.745456,2.15844 -1.579313,4.579773 -2.052734,5.94336 2.074594,-0.492291 4.022991,-1.046932 5.787109,-1.626953 z m -10.953125,2.572266 c -4.241834,0.663483 -9.070752,1.001524 -13.554688,0.341796 0.06244,2.651374 0.09518,4.099516 0.148438,6.378907 4.51551,0.202801 9.18338,-0.283937 13.492187,-1.123047 -0.0203,-1.192963 -0.05608,-3.682572 -0.08594,-5.597656 z"
       transform="translate(-0.2896327,-2.3584326)"
       id="path4098"
       inkscape:connector-curvature="0" />
  </g>
  <path
     sodipodi:nodetypes="ssscsscs"
     inkscape:connector-curvature="0"
     id="path3987"
     d="m 60.346138,39.196469 c -15.316947,2.271279 -28.851717,11.701583 -24.552245,31.399362 6.113388,28.00815 51.648889,11.489286 52.298278,8.237316 0.261311,-1.308559 0.59088,-4.090058 0.473986,-4.496985 -0.993954,1.211312 -4.928457,2.44398 -6.25657,2.866821 -1.082885,0.344774 -33.387008,11.479501 -38.928156,-7.954779 -2.113807,-7.413691 -0.56013,-17.631026 11.522143,-23.731447 0,0 7.042256,-6.557499 5.442564,-6.320288 z"
     style="opacity:1;vector-effect:none;fill:url(#linearGradient3997);fill-opacity:1;fill-rule:nonzero;stroke:none;stroke-width:1.59334338;stroke-linecap:round;stroke-linejoin:round;stroke-miterlimit:4;stroke-dasharray:none;stroke-dashoffset:0;stroke-opacity:1;paint-order:fill markers stroke" />
  <g
     transform="translate(0.3257909,1.3481319)"
     id="g4106"
     style="fill:#ffec28;fill-opacity:0.98695654" />
</svg>
