<?xml version="1.0" encoding="UTF-8" standalone="no"?>
<!-- Created with Inkscape (http://www.inkscape.org/) -->

<svg
   xmlns:dc="http://purl.org/dc/elements/1.1/"
   xmlns:cc="http://creativecommons.org/ns#"
   xmlns:rdf="http://www.w3.org/1999/02/22-rdf-syntax-ns#"
   xmlns:svg="http://www.w3.org/2000/svg"
   xmlns="http://www.w3.org/2000/svg"
   xmlns:xlink="http://www.w3.org/1999/xlink"
   xmlns:sodipodi="http://sodipodi.sourceforge.net/DTD/sodipodi-0.dtd"
   xmlns:inkscape="http://www.inkscape.org/namespaces/inkscape"
   version="1.1"
   id="svg2"
   width="16"
   height="16"
   viewBox="0 0 16 16"
   sodipodi:docname="16.svg"
   inkscape:export-filename="C:\Users\tsvi\Desktop\rect3959.png"
   inkscape:export-xdpi="200"
   inkscape:export-ydpi="200"
   inkscape:version="0.92.3 (2405546, 2018-03-11)">
  <metadata
     id="metadata8">
    <rdf:RDF>
      <cc:Work
         rdf:about="">
        <dc:format>image/svg+xml</dc:format>
        <dc:type
           rdf:resource="http://purl.org/dc/dcmitype/StillImage" />
        <dc:title></dc:title>
      </cc:Work>
    </rdf:RDF>
  </metadata>
  <defs
     id="defs6">
    <linearGradient
       inkscape:collect="always"
       id="linearGradient4023">
      <stop
         style="stop-color:#ffffff;stop-opacity:0.99504948"
         offset="0"
         id="stop4015" />
      <stop
         id="stop4017"
         offset="0.21376464"
         style="stop-color:#ffffff;stop-opacity:0.23267327" />
      <stop
         style="stop-color:#ffffff;stop-opacity:0.26732674"
         offset="0.86395437"
         id="stop4019" />
      <stop
         style="stop-color:#ffffff;stop-opacity:1"
         offset="1"
         id="stop4021" />
    </linearGradient>
    <linearGradient
       inkscape:collect="always"
       id="linearGradient3995">
      <stop
         style="stop-color:#3689e6;stop-opacity:1"
         offset="0"
         id="stop3991" />
      <stop
         style="stop-color:#3689e6;stop-opacity:0"
         offset="1"
         id="stop3993" />
    </linearGradient>
    <linearGradient
       inkscape:collect="always"
       id="linearGradient3983">
      <stop
         style="stop-color:#d4d4d4;stop-opacity:1"
         offset="0"
         id="stop3979" />
      <stop
         style="stop-color:#fafafa;stop-opacity:1"
         offset="1"
         id="stop3981" />
    </linearGradient>
    <linearGradient
       inkscape:collect="always"
       id="linearGradient3965">
      <stop
         style="stop-color:#7239b3;stop-opacity:1;"
         offset="0"
         id="stop3961" />
      <stop
         style="stop-color:#a56de2;stop-opacity:1"
         offset="1"
         id="stop3963" />
    </linearGradient>
    <linearGradient
       inkscape:collect="always"
       xlink:href="#linearGradient3965"
       id="linearGradient3967"
       x1="140.54086"
       y1="215.2238"
       x2="140.54086"
       y2="58.441864"
       gradientUnits="userSpaceOnUse"
       gradientTransform="matrix(0.0547369,0,0,0.0547369,0.40806758,0.28632118)" />
    <linearGradient
       inkscape:collect="always"
       xlink:href="#linearGradient3983"
       id="linearGradient3985"
       x1="70"
       y1="119"
       x2="70"
       y2="24"
       gradientUnits="userSpaceOnUse"
       gradientTransform="matrix(0.12624243,0,0,0.12714703,-0.52136333,-1.0545877)" />
    <linearGradient
       inkscape:collect="always"
       xlink:href="#linearGradient3995"
       id="linearGradient3997"
       x1="55"
       y1="75.087006"
       x2="55"
       y2="45.541245"
       gradientUnits="userSpaceOnUse"
       gradientTransform="matrix(0.12708264,0,0,0.12708264,-0.57446502,-1.2985044)" />
    <filter
       inkscape:collect="always"
       style="color-interpolation-filters:sRGB"
       id="filter4080"
       x="-0.053534791"
       width="1.1070696"
       y="-1.0771201"
       height="3.1542404">
      <feGaussianBlur
         inkscape:collect="always"
         stdDeviation="2.2949574"
         id="feGaussianBlur4082" />
    </filter>
    <linearGradient
       inkscape:collect="always"
       xlink:href="#linearGradient3983"
       id="linearGradient4234"
       gradientUnits="userSpaceOnUse"
       x1="66.488136"
       y1="119"
       x2="66.488136"
       y2="23"
       gradientTransform="matrix(0.12624243,0,0,0.12714703,-0.07951436,-1.0545877)" />
    <linearGradient
       inkscape:collect="always"
       xlink:href="#linearGradient4023"
       id="linearGradient4013"
       x1="7.8652654"
       y1="14.245414"
       x2="7.8652654"
       y2="1.8710456"
       gradientUnits="userSpaceOnUse" />
  </defs>
  <sodipodi:namedview
     pagecolor="#ffffff"
     bordercolor="#666666"
     borderopacity="1"
     objecttolerance="10"
     gridtolerance="10"
     guidetolerance="10"
     inkscape:pageopacity="0"
     inkscape:pageshadow="2"
     inkscape:window-width="1920"
     inkscape:window-height="986"
     id="namedview4"
     showgrid="false"
     showguides="false"
     inkscape:guide-bbox="true"
     inkscape:snap-global="false"
     inkscape:zoom="1"
     inkscape:cx="-9.5693116"
     inkscape:cy="21.102988"
     inkscape:window-x="-11"
     inkscape:window-y="-11"
     inkscape:window-maximized="1"
     inkscape:current-layer="svg2"
     showborder="false"
     inkscape:pagecheckerboard="false"
     inkscape:showpageshadow="true"
     borderlayer="true">
    <inkscape:grid
       type="xygrid"
       id="grid3969" />
    <sodipodi:guide
       position="5,1"
       orientation="0,1"
       id="guide3971"
       inkscape:locked="false" />
    <sodipodi:guide
       position="108.61921,104"
       orientation="0,1"
       id="guide3973"
       inkscape:locked="false" />
    <sodipodi:guide
       position="2,14"
       orientation="0,1"
       id="guide3976"
       inkscape:locked="false" />
  </sodipodi:namedview>
  <rect
     style="opacity:1;vector-effect:none;fill:url(#linearGradient3985);fill-opacity:1;fill-rule:nonzero;stroke:#121212;stroke-width:2;stroke-linecap:round;stroke-linejoin:round;stroke-miterlimit:4;stroke-dasharray:none;stroke-dashoffset:0;stroke-opacity:0.49009902;paint-order:markers stroke fill"
     id="rect3977"
     width="11.993031"
     height="12.078968"
     x="2.003485"
     y="1.9969412"
     ry="0.81085056" />
  <rect
     style="opacity:0.6;vector-effect:none;fill:#000000;fill-opacity:1;fill-rule:nonzero;stroke:none;stroke-width:2;stroke-linecap:round;stroke-linejoin:round;stroke-miterlimit:4;stroke-dasharray:none;stroke-dashoffset:0;stroke-opacity:0.99504945;paint-order:markers stroke fill;filter:url(#filter4080)"
     id="rect4030"
     width="102.88445"
     height="5.1135406"
     x="12.557774"
     y="116.34113"
     ry="2.5567703"
     transform="matrix(0.13145645,0,0,0.16159713,-0.41321293,-4.4314035)" />
  <path
     style="opacity:1;vector-effect:none;fill:url(#linearGradient4234);fill-opacity:1;fill-rule:nonzero;stroke:url(#linearGradient4013);stroke-width:2;stroke-linecap:round;stroke-linejoin:round;stroke-miterlimit:4;stroke-dasharray:none;stroke-dashoffset:0;stroke-opacity:0.95652173;paint-order:markers stroke fill"
     d="M 3.0039062 2.9960938 L 3.0039062 13.076172 L 12.996094 13.076172 L 12.996094 2.9960938 L 3.0039062 2.9960938 z "
     id="rect4219" />
  <g
     transform="matrix(0.12708263,0,0,0.12708263,-0.07072952,-0.4188115)"
     id="g4088"
     style="opacity:0.15;fill:#000000;fill-opacity:0.98695655">
    <path
       style="opacity:1;vector-effect:none;fill:#000000;fill-opacity:0.98695655;fill-rule:nonzero;stroke:none;stroke-width:1.62791443;stroke-linecap:round;stroke-linejoin:round;stroke-miterlimit:4;stroke-dasharray:none;stroke-dashoffset:0;stroke-opacity:1;paint-order:fill markers stroke"
       d="m 65.915798,36.880762 c -2.625991,0.0022 -4.376321,0.186678 -6.010723,0.429036 -15.649279,2.320559 -29.477715,11.955474 -25.084958,32.080638 6.246032,28.615846 52.769521,11.73857 53.433001,8.416042 0.26698,-1.336951 0.6037,-4.178801 0.48427,-4.594557 -1.01552,1.237594 -5.03539,2.497008 -6.39232,2.929023 -1.10638,0.352255 -34.11141,11.728573 -39.772784,-8.127375 C 40.412613,60.439022 42,50 54.344424,43.767218 L 56,43 l 0.05973,1.762414 c 0.06538,1.929113 1.433489,59.585086 1.433489,60.411706 v 0.51064 l 6.713149,-0.0614 6.71317,-0.0606 12.6877,-33.998204 C 90.585268,52.865613 96.29929,37.48624 96.30504,37.388014 c 0.006,-0.09822 -1.449712,-0.150303 -3.233762,-0.115251 l -3.24385,0.06394 -9.56247,27.831849 c -5.25964,15.307753 -9.58009,27.816617 -9.60032,27.79652 -0.0202,-0.02011 -0.21412,-12.596279 -0.43156,-27.947104 -0.21744,-15.350821 -0.44228,-27.963003 -0.4997,-28.026177 -0.0574,-0.06317 -1.77531,-0.112854 -3.81758,-0.111044 z"
       id="path4084"
       inkscape:connector-curvature="0"
       sodipodi:nodetypes="cssscsscccscccccccccsscc" />
    <path
       sodipodi:nodetypes="ssscsscs"
       inkscape:connector-curvature="0"
       id="path4086"
       d="M 59.905075,37.309798 C 44.255796,39.630357 30.42736,49.265272 34.820117,69.390436 c 6.246032,28.615846 52.769521,11.73857 53.433001,8.416042 0.26698,-1.336951 0.6037,-4.178801 0.48427,-4.594557 -1.01552,1.237594 -5.03539,2.497008 -6.39232,2.929023 -1.10638,0.352255 -34.11141,11.728573 -39.772784,-8.127375 C 40.412613,60.439022 42,50 54.344424,43.767218 c 0,0 7.195053,-6.699778 5.560651,-6.45742 z"
       style="opacity:1;vector-effect:none;fill:#000000;fill-opacity:0.98695655;fill-rule:nonzero;stroke:none;stroke-width:1.62791443;stroke-linecap:round;stroke-linejoin:round;stroke-miterlimit:4;stroke-dasharray:none;stroke-dashoffset:0;stroke-opacity:1;paint-order:fill markers stroke" />
  </g>
  <path
     style="opacity:1;vector-effect:none;fill:url(#linearGradient3967);fill-opacity:1;fill-rule:nonzero;stroke:none;stroke-width:0.20687965;stroke-linecap:round;stroke-linejoin:round;stroke-miterlimit:4;stroke-dasharray:none;stroke-dashoffset:0;stroke-opacity:1;paint-order:fill markers stroke"
     d="m 8.3106182,3.3884002 c -0.333717,2.799e-4 -0.556154,0.023725 -0.763858,0.054523 -1.988751,0.2949026 -3.746105,1.5193328 -3.187862,4.0768917 0.793762,3.6365771 6.7060888,1.4917681 6.7904048,1.0695329 0.03393,-0.1699032 0.07672,-0.5310532 0.06154,-0.5838885 C 11.08179,8.162736 10.570936,8.3227857 10.398493,8.3776873 10.257892,8.4224529 6.0635262,9.8681853 5.3440632,7.3448391 5.0696062,6.3822455 5.2713362,5.0556272 6.8400982,4.2635494 l 0.210395,-0.0975 0.0076,0.2239723 c 0.0083,0.2451564 0.182171,7.5722283 0.182171,7.6772753 v 0.06489 l 0.853125,-0.0077 0.853127,-0.0076 1.6123868,-4.3205803 c 0.886787,-2.3763309 1.61294,-4.3307818 1.613671,-4.3432644 7.7e-4,-0.01248 -0.184235,-0.0191 -0.410957,-0.014647 l -0.412245,0.00807 -1.215224,3.5369444 C 9.4657382,8.9286403 8.9166832,10.518299 8.9141132,10.515745 c -0.0026,-0.0026 -0.02721,-1.6007679 -0.05484,-3.5515907 -0.02763,-1.9508229 -0.05621,-3.5536119 -0.06351,-3.5616402 -0.0073,-0.00803 -0.225611,-0.014343 -0.485149,-0.014111 z"
     id="rect3958"
     inkscape:connector-curvature="0"
     sodipodi:nodetypes="cssscsscccscccccccccsscc" />
  <path
     sodipodi:nodetypes="ssscsscs"
     inkscape:connector-curvature="0"
     id="path3987"
     d="m 7.5467602,3.4429233 c -1.988751,0.2949026 -3.746105,1.5193328 -3.187862,4.0768917 0.793762,3.636577 6.7060888,1.4917681 6.7904048,1.0695329 0.03392,-0.1699032 0.07672,-0.5310532 0.06154,-0.5838885 -0.129053,0.1572767 -0.639907,0.3173264 -0.81235,0.372228 -0.140601,0.044765 -4.3349668,1.4904979 -5.0544298,-1.0328483 -0.274457,-0.9625936 -0.07273,-2.2892119 1.496035,-3.0812897 0,0 0.914366,-0.8514255 0.706662,-0.8206261 z"
     style="opacity:1;vector-effect:none;fill:url(#linearGradient3997);fill-opacity:1;fill-rule:nonzero;stroke:none;stroke-width:0.20687965;stroke-linecap:round;stroke-linejoin:round;stroke-miterlimit:4;stroke-dasharray:none;stroke-dashoffset:0;stroke-opacity:1;paint-order:fill markers stroke" />
  <g
     transform="translate(0.3257909,-110.65187)"
     id="g4106"
     style="fill:#ffec28;fill-opacity:0.98695655" />
  <path
     style="opacity:0.15;vector-effect:none;fill:#000000;fill-opacity:1;fill-rule:nonzero;stroke:none;stroke-width:0.20687965;stroke-linecap:round;stroke-linejoin:round;stroke-miterlimit:4;stroke-dasharray:none;stroke-dashoffset:0;stroke-opacity:1;paint-order:fill markers stroke"
     d="M 9.9667969 9.3828125 C 9.7641546 9.442051 9.5910682 9.4859103 9.2460938 9.5546875 C 9.1889542 9.7191517 9.0003301 10.267977 8.9863281 10.306641 C 9.2401331 10.254583 9.4622011 10.196315 9.6875 10.130859 L 9.9667969 9.3828125 z M 8.9003906 9.6210938 C 8.3635032 9.70552 7.7524482 9.7497699 7.1835938 9.6679688 C 7.1915106 10.005726 7.1970897 10.211883 7.203125 10.472656 C 7.7785549 10.497291 8.3621609 10.426028 8.9101562 10.318359 C 8.909177 10.283787 8.9028422 9.7639777 8.9003906 9.6210938 z "
     id="path3982" />
</svg>
