<?xml version="1.0" encoding="UTF-8" standalone="no"?>
<svg id="svg8324" xmlns:rdf="http://www.w3.org/1999/02/22-rdf-syntax-ns#" xmlns="http://www.w3.org/2000/svg" xmlns:osb="http://www.openswatchbook.org/uri/2009/osb" height="16" width="16" version="1.1" xmlns:cc="http://creativecommons.org/ns#" xmlns:xlink="http://www.w3.org/1999/xlink" xmlns:dc="http://purl.org/dc/elements/1.1/">
 <metadata id="metadata8385">
  <rdf:RDF>
   <cc:Work rdf:about="">
    <dc:format>image/svg+xml</dc:format>
    <dc:type rdf:resource="http://purl.org/dc/dcmitype/StillImage"/>
    <dc:title/>
   </cc:Work>
  </rdf:RDF>
 </metadata>
 <defs id="defs8326">
  <radialGradient id="a" gradientUnits="userSpaceOnUse" cy="43.5" cx="4.993" gradientTransform="matrix(.84153 0 0 .25069 9.7205 4.3536)" r="2.5">
   <stop id="stop8329" stop-color="#181818" offset="0"/>
   <stop id="stop8331" stop-opacity="0" stop-color="#181818" offset="1"/>
  </radialGradient>
  <radialGradient id="b" gradientUnits="userSpaceOnUse" cy="43.5" cx="4.993" gradientTransform="matrix(-.84153 0 0 -.25069 6.3708 26.164)" r="2.5">
   <stop id="stop8334" stop-color="#181818" offset="0"/>
   <stop id="stop8336" stop-opacity="0" stop-color="#181818" offset="1"/>
  </radialGradient>
  <linearGradient id="c" x1="25.058" gradientUnits="userSpaceOnUse" x2="25.058" gradientTransform="matrix(.41997 0 0 .17906 -2.0336 7.4693)" y1="47.028" y2="39.999">
   <stop id="stop8339" stop-opacity="0" stop-color="#181818" offset="0"/>
   <stop id="stop8341" stop-color="#181818" offset=".5"/>
   <stop id="stop8343" stop-opacity="0" stop-color="#181818" offset="1"/>
  </linearGradient>
  <linearGradient id="e" x1="24" gradientUnits="userSpaceOnUse" x2="24" gradientTransform="matrix(.36485 0 0 .36487 -.75662 -.75660)" y1="5" y2="43">
   <stop id="stop8346" stop-color="#fff" offset="0"/>
   <stop id="stop8348" stop-opacity=".235" stop-color="#fff" offset=".063"/>
   <stop id="stop8350" stop-opacity=".157" stop-color="#fff" offset=".951"/>
   <stop id="stop8352" stop-opacity=".392" stop-color="#fff" offset="1"/>
  </linearGradient>
  <linearGradient id="linearGradient9236" y2="52.581" gradientUnits="userSpaceOnUse" y1="12.094" gradientTransform="matrix(.25455 0 0 .25455 -.14545 -.14545)" x2="16.988" x1="42.626">
   <stop id="stop8355" stop-color="#abacae" offset="0"/>
   <stop id="stop8357" stop-color="#abacae" offset=".098805"/>
   <stop id="stop8359" stop-color="#7e8087" offset=".46466"/>
   <stop id="stop8361" stop-color="#555761" offset="1"/>
  </linearGradient>
  <linearGradient id="linearGradient9240" y2="15.996" gradientUnits="userSpaceOnUse" y1="38.771" gradientTransform="matrix(.24878 0 0 .25069 .084270 .46786)" x2="38.099" x1="26.935">
   <stop id="stop9216" stop-color="#95a3ab" offset="0"/>
   <stop id="stop9218" stop-color="#273445" offset="1"/>
  </linearGradient>
  <linearGradient id="linearGradient9242" y2="49.239" gradientUnits="userSpaceOnUse" y1="23.259" gradientTransform="matrix(.24974 0 0 .24973 .084592 .46608)" x2="23.959" x1="47.967">
   <stop id="stop9226" stop-color="#667885" offset="0"/>
   <stop id="stop9228" stop-color="#0e141f" offset="1"/>
  </linearGradient>
 </defs>
 <path id="path8365" fill="url(#a)" d="m13.925 14.632h2.0998v1.2535h-2.0998z"/>
 <path id="path8367" fill="url(#b)" d="m2.1661 15.885h-2.0998v-1.2535h2.0998z"/>
 <path id="path8369" fill="url(#c)" d="m2.1661 14.632h11.759v1.2535h-11.759z"/>
 <rect id="rect8371" style="color:#000000" rx="1" ry="1" height="14" width="14" y="1" x="1" fill="url(#linearGradient9236)"/>
 <rect id="rect8373" opacity=".3" stroke-linejoin="round" rx=".74997" ry=".74997" height="13.5" width="13.5" stroke="url(#e)" stroke-linecap="round" y="1.25" x="1.25" stroke-width=".50006" fill="none"/>
 <rect id="rect8375" opacity=".5" stroke-linejoin="round" style="color:#000000" rx="1.2493" ry="1.2493" height="14.499" width="14.499" stroke="#05020d" stroke-linecap="round" y=".75069" x=".75069" stroke-width=".50137" fill="none"/>
 <text id="text9036-6" opacity=".3" style="word-spacing:0px;letter-spacing:0px" fill-opacity=".99216" xml:space="preserve" transform="scale(.99619 1.0038)" line-height="125%" font-size="12.234px" y="13.428205" x="4.8647828" font-family="FreeSerif" fill="#1d1c2c"><tspan id="tspan9038-4" y="13.428205" x="4.8647828">C</tspan></text>
 <text id="text9036" style="word-spacing:0px;letter-spacing:0px" xml:space="preserve" transform="scale(.99619 1.0038)" line-height="125%" font-size="12.234px" y="13.273355" x="4.8525009" font-family="FreeSerif" fill="url(#linearGradient9242)"><tspan id="tspan9038" y="13.273355" x="4.8525009" fill="url(#linearGradient9242)">C</tspan></text>
 <path id="path8379" opacity=".3" style="color:#000000;isolation:auto;mix-blend-mode:normal" fill="#201c2c" d="m5.796 11.802-0.1791-7.6532q-0.7819 0.2954-1.2214 0.9243-0.4346 0.6292-0.4346 1.5646 0 0.21328 0.021831 0.35019 0.026977 0.13123 0.054203 0.21328 0.027225 0.076614 0.049052 0.12036 0.026983 0.043738 0.026983 0.076613-0.28769 0-0.51014-0.054613-0.2226-0.0602-0.3747-0.186-0.1467-0.1256-0.2281-0.3337-0.076-0.2076-0.076-0.514 0-0.37194 0.15721-0.73301 0.1628-0.3608 0.4397-0.6838 0.2823-0.3226 0.6571-0.5961 0.3801-0.2736 0.8089-0.4706 0.4341-0.2024 0.901-0.3116 0.4724-0.1152 0.9394-0.1152 0.12484 0 0.22809 0.00545 0.1084 0.00545 0.21681 0.016312l0.097858 6.8927 2.3398-6.86h0.77625l-3.0888 8.3483h-1.6015z"/>
 <path id="path8381" fill="url(#linearGradient9240)" d="m5.796 11.555-0.1791-7.6533q-0.7819 0.2953-1.2214 0.9243-0.4346 0.6292-0.4346 1.5646 0 0.21328 0.021831 0.35019 0.026977 0.13123 0.054203 0.21328 0.027225 0.076612 0.049052 0.12036 0.026983 0.043745 0.026983 0.076612-0.28769 0-0.51014-0.05462-0.2226-0.0603-0.3747-0.1861-0.1467-0.1255-0.2281-0.3336-0.07603-0.2076-0.07603-0.51405 0-0.37194 0.15721-0.73301 0.1628-0.3608 0.4397-0.6838 0.2823-0.3225 0.6571-0.5961 0.3801-0.2736 0.8089-0.4705 0.4341-0.2024 0.901-0.3117 0.4724-0.1151 0.9394-0.1151 0.12484 0 0.22809 0.00545 0.1084 0.00545 0.21681 0.016312l0.097858 6.8927 2.3398-6.86h0.77625l-3.0888 8.3483h-1.6015z"/>
</svg>
