<?xml version="1.0" encoding="UTF-8" standalone="no"?>
<svg id="svg8324" xmlns:rdf="http://www.w3.org/1999/02/22-rdf-syntax-ns#" xmlns="http://www.w3.org/2000/svg" xmlns:osb="http://www.openswatchbook.org/uri/2009/osb" height="32" width="32" version="1.1" xmlns:cc="http://creativecommons.org/ns#" xmlns:xlink="http://www.w3.org/1999/xlink" xmlns:dc="http://purl.org/dc/elements/1.1/">
 <metadata id="metadata8385">
  <rdf:RDF>
   <cc:Work rdf:about="">
    <dc:format>image/svg+xml</dc:format>
    <dc:type rdf:resource="http://purl.org/dc/dcmitype/StillImage"/>
    <dc:title/>
   </cc:Work>
  </rdf:RDF>
 </metadata>
 <defs id="defs8326">
  <radialGradient id="a" gradientUnits="userSpaceOnUse" cy="43.5" cx="4.993" gradientTransform="matrix(1.5974 0 0 .50875 19.726 7.7489)" r="2.5">
   <stop id="stop8329" stop-color="#181818" offset="0"/>
   <stop id="stop8331" stop-color="#181818" stop-opacity="0" offset="1"/>
  </radialGradient>
  <radialGradient id="b" gradientUnits="userSpaceOnUse" cy="43.5" cx="4.993" gradientTransform="matrix(-1.5974 0 0 -.50875 13.368 52.01)" r="2.5">
   <stop id="stop8334" stop-color="#181818" offset="0"/>
   <stop id="stop8336" stop-color="#181818" stop-opacity="0" offset="1"/>
  </radialGradient>
  <linearGradient id="c" y2="39.999" gradientUnits="userSpaceOnUse" y1="47.028" gradientTransform="matrix(.79721 0 0 .36339 -2.5862 14.072)" x2="25.058" x1="25.058">
   <stop id="stop8339" stop-color="#181818" stop-opacity="0" offset="0"/>
   <stop id="stop8341" stop-color="#181818" offset=".5"/>
   <stop id="stop8343" stop-color="#181818" stop-opacity="0" offset="1"/>
  </linearGradient>
  <linearGradient id="e" x1="24" gradientUnits="userSpaceOnUse" y1="5" gradientTransform="matrix(.67566 0 0 .67569 -.21631 -.21574)" x2="24" y2="43">
   <stop id="stop8346" stop-color="#fff" offset="0"/>
   <stop id="stop8348" stop-color="#fff" stop-opacity=".235" offset=".063"/>
   <stop id="stop8350" stop-color="#fff" stop-opacity=".157" offset=".951"/>
   <stop id="stop8352" stop-color="#fff" stop-opacity=".392" offset="1"/>
  </linearGradient>
  <linearGradient id="linearGradient9236" y2="52.581" gradientUnits="userSpaceOnUse" x2="16.988" gradientTransform="matrix(.47273 0 0 .47273 .87273 .87273)" y1="12.094" x1="42.626">
   <stop id="stop8355" stop-color="#abacae" offset="0"/>
   <stop id="stop8357" stop-color="#abacae" offset=".098805"/>
   <stop id="stop8359" stop-color="#7e8087" offset=".46466"/>
   <stop id="stop8361" stop-color="#555761" offset="1"/>
  </linearGradient>
  <linearGradient id="linearGradient9240" y2="15.996" gradientUnits="userSpaceOnUse" x2="38.099" gradientTransform="matrix(.50488 0 0 .50875 .39004 -.13681)" y1="38.771" x1="26.935">
   <stop id="stop9216" stop-color="#95a3ab" offset="0"/>
   <stop id="stop9218" stop-color="#273445" offset="1"/>
  </linearGradient>
  <linearGradient id="linearGradient9242" y2="49.239" gradientUnits="userSpaceOnUse" x2="23.959" gradientTransform="matrix(.50681 0 0 .50681 .39153 -.13628)" y1="23.259" x1="47.967">
   <stop id="stop9226" stop-color="#667885" offset="0"/>
   <stop id="stop9228" stop-color="#0e141f" offset="1"/>
  </linearGradient>
 </defs>
 <path id="path8365" fill="url(#a)" d="m27.708 28.608h3.986v2.5437h-3.986z"/>
 <path id="path8367" fill="url(#b)" d="m5.3858 31.151h-3.986v-2.5437h3.986z"/>
 <path id="path8369" fill="url(#c)" d="m5.3858 28.608h22.322v2.5437h-22.322z"/>
 <rect id="rect8371" style="color:#000000" rx="1" ry="1" height="26" width="26" y="3" x="3" fill="url(#linearGradient9236)"/>
 <rect id="rect8373" opacity=".3" stroke-linejoin="round" rx=".50025" ry=".50025" height="25" width="25" stroke="url(#e)" stroke-linecap="round" y="3.5002" x="3.4997" stroke-width=".99999" fill="none"/>
 <rect id="rect8375" opacity=".5" stroke-linejoin="round" style="color:#000000" rx="1.5004" ry="1.5004" height="27.001" width="27.001" stroke="#05020d" stroke-linecap="round" y="2.4996" x="2.4996" stroke-width=".99928" fill="none"/>
 <text id="text9036-6" opacity=".3" style="word-spacing:0px;letter-spacing:0px" fill-opacity=".99216" xml:space="preserve" transform="scale(.99619 1.0038)" line-height="125%" font-size="24.828px" y="26.168974" x="10.092419" font-family="FreeSerif" fill="#1d1c2c"><tspan id="tspan9038-4" y="26.168974" x="10.092419">C</tspan></text>
 <text id="text9036" style="word-spacing:0px;letter-spacing:0px" xml:space="preserve" transform="scale(.99619 1.0038)" line-height="125%" font-size="24.828px" y="25.854723" x="10.067494" font-family="FreeSerif" fill="url(#linearGradient9242)"><tspan id="tspan9038" y="25.854723" x="10.067494" fill="url(#linearGradient9242)">C</tspan></text>
 <path id="path8379" opacity=".3" style="color:#000000;isolation:auto;mix-blend-mode:normal" fill="#201c2c" d="m11.981 22.864-0.363-15.531q-1.587 0.5997-2.4787 1.8761-0.882 1.2769-0.882 3.1749 0 0.43283 0.044303 0.71068 0.054747 0.26632 0.11 0.43283 0.055251 0.15548 0.099547 0.24425 0.05476 0.08877 0.05476 0.15548-0.58384 0-1.0353-0.11084-0.4519-0.122-0.7605-0.377-0.2976-0.255-0.4629-0.677-0.1543-0.421-0.1543-1.043 0-0.75482 0.31904-1.4876 0.3306-0.732 0.8925-1.3875 0.5729-0.6545 1.3334-1.2098 0.7715-0.5552 1.6412-0.9549 0.881-0.4107 1.829-0.6324 0.95863-0.23372 1.9063-0.23372 0.25334 0 0.46289 0.011035 0.22 0.011035 0.43999 0.033104l0.199 13.988 4.748-13.922h1.5753l-6.2684 16.942h-3.2502z"/>
 <path id="path8381" fill="url(#linearGradient9240)" d="m11.981 22.363-0.363-15.531q-1.587 0.5991-2.4787 1.8755-0.882 1.277-0.882 3.1755 0 0.43283 0.044303 0.71068 0.054747 0.26632 0.11 0.43283 0.055251 0.15548 0.099547 0.24425 0.05476 0.08877 0.05476 0.15548-0.58384 0-1.0353-0.11084-0.4519-0.123-0.7605-0.378-0.2976-0.255-0.4629-0.678-0.1543-0.421-0.1543-1.043 0-0.75482 0.31904-1.4876 0.3306-0.732 0.8925-1.3875 0.5729-0.6545 1.3334-1.2097 0.7715-0.5552 1.6412-0.9549 0.881-0.4108 1.829-0.6325 0.959-0.2337 1.906-0.2337 0.25334 0 0.46289 0.011037 0.22 0.011037 0.43999 0.033104l0.19859 13.988 4.7483-13.922h1.5753l-6.2684 16.942h-3.2502z"/>
</svg>
