<?xml version="1.0" encoding="UTF-8" standalone="no"?>
<svg id="svg8324" xmlns:rdf="http://www.w3.org/1999/02/22-rdf-syntax-ns#" xmlns="http://www.w3.org/2000/svg" xmlns:osb="http://www.openswatchbook.org/uri/2009/osb" height="64" width="64" version="1.1" xmlns:cc="http://creativecommons.org/ns#" xmlns:xlink="http://www.w3.org/1999/xlink" xmlns:dc="http://purl.org/dc/elements/1.1/">
 <metadata id="metadata8385">
  <rdf:RDF>
   <cc:Work rdf:about="">
    <dc:format>image/svg+xml</dc:format>
    <dc:type rdf:resource="http://purl.org/dc/dcmitype/StillImage"/>
    <dc:title/>
   </cc:Work>
  </rdf:RDF>
 </metadata>
 <defs id="defs8326">
  <radialGradient id="a" gradientUnits="userSpaceOnUse" cy="43.5" cx="4.993" gradientTransform="matrix(3.206 0 0 1.0132 38.569 14.553)" r="2.5">
   <stop id="stop8329" stop-color="#181818" offset="0"/>
   <stop id="stop8331" stop-color="#181818" stop-opacity="0" offset="1"/>
  </radialGradient>
  <radialGradient id="b" gradientUnits="userSpaceOnUse" cy="43.5" cx="4.993" gradientTransform="matrix(-3.206 0 0 -1.0132 25.808 102.71)" r="2.5">
   <stop id="stop8334" stop-color="#181818" offset="0"/>
   <stop id="stop8336" stop-color="#181818" stop-opacity="0" offset="1"/>
  </radialGradient>
  <linearGradient id="c" y2="39.999" gradientUnits="userSpaceOnUse" y1="47.028" gradientTransform="matrix(1.6 0 0 .72375 -6.2107 27.146)" x2="25.058" x1="25.058">
   <stop id="stop8339" stop-color="#181818" stop-opacity="0" offset="0"/>
   <stop id="stop8341" stop-color="#181818" offset=".5"/>
   <stop id="stop8343" stop-color="#181818" stop-opacity="0" offset="1"/>
  </linearGradient>
  <linearGradient id="e" x1="24" gradientUnits="userSpaceOnUse" y1="5" gradientTransform="matrix(1.4331 0 0 1.4331 -2.3937 -3.3936)" x2="24" y2="43">
   <stop id="stop8346" stop-color="#fff" offset="0"/>
   <stop id="stop8348" stop-color="#fff" stop-opacity=".235" offset=".063"/>
   <stop id="stop8350" stop-color="#fff" stop-opacity=".157" offset=".951"/>
   <stop id="stop8352" stop-color="#fff" stop-opacity=".392" offset="1"/>
  </linearGradient>
  <linearGradient id="linearGradient9236" y2="52.581" gradientUnits="userSpaceOnUse" x2="16.988" gradientTransform="matrix(.98182 0 0 .98182 .58182 -.41818)" y1="12.094" x1="42.626">
   <stop id="stop8355" stop-color="#abacae" offset="0"/>
   <stop id="stop8357" stop-color="#abacae" offset=".098805"/>
   <stop id="stop8359" stop-color="#7e8087" offset=".46466"/>
   <stop id="stop8361" stop-color="#555761" offset="1"/>
  </linearGradient>
  <linearGradient id="linearGradient9240" y2="15.996" gradientUnits="userSpaceOnUse" x2="38.099" gradientTransform="matrix(1.0133 0 0 1.0132 -.23742 -1.1525)" y1="38.771" x1="26.935">
   <stop id="stop9216" stop-color="#95a3ab" offset="0"/>
   <stop id="stop9218" stop-color="#273445" offset="1"/>
  </linearGradient>
  <linearGradient id="linearGradient9242" y2="49.239" gradientUnits="userSpaceOnUse" x2="23.959" gradientTransform="matrix(1.0133 0 0 1.0133 -.23742 -1.1525)" y1="23.259" x1="47.967">
   <stop id="stop9226" stop-color="#667885" offset="0"/>
   <stop id="stop9228" stop-color="#0e141f" offset="1"/>
  </linearGradient>
 </defs>
 <path id="path8365" fill="url(#a)" d="m54.588 56.096h7.9998v5.0662h-7.9998z"/>
 <path id="path8367" fill="url(#b)" d="m9.7889 61.163h-7.9998v-5.0662h7.9998z"/>
 <path id="path8369" fill="url(#c)" d="m9.7889 56.096h44.799v5.0662h-44.799z"/>
 <rect id="rect8371" style="color:#000000" rx="2" ry="2" height="54" width="54" y="4" x="5" fill="url(#linearGradient9236)"/>
 <rect id="rect8373" opacity=".3" stroke-linejoin="round" rx="1.5121" ry="1.5121" height="53.024" width="53.024" stroke="url(#e)" stroke-linecap="round" y="4.4879" x="5.4879" stroke-width=".97581" fill="none"/>
 <rect id="rect8375" opacity=".5" stroke-linejoin="round" style="color:#000000" rx="2.9993" ry="2.9993" height="55.999" width="55.999" stroke="#05020d" stroke-linecap="round" y="3.0007" x="4.0007" stroke-width="2.0015" fill="none"/>
 <text id="text9036-6" opacity=".3" style="word-spacing:0px;letter-spacing:0px" fill-opacity=".99216" xml:space="preserve" transform="scale(1 .99998)" line-height="125%" font-size="49.639px" y="51.439167" x="19.1574" font-family="FreeSerif" fill="#1d1c2c"><tspan id="tspan9038-4" y="51.439167" x="19.1574">C</tspan></text>
 <text id="text9036" style="word-spacing:0px;letter-spacing:0px" xml:space="preserve" transform="scale(1 .99998)" line-height="125%" font-size="49.639px" y="50.81089" x="19.107571" font-family="FreeSerif" fill="url(#linearGradient9242)"><tspan id="tspan9038" y="50.81089" x="19.107571" fill="url(#linearGradient9242)">C</tspan></text>
 <path id="path8379" opacity=".3" style="color:#000000;isolation:auto;mix-blend-mode:normal" fill="#201c2c" d="m23.026 44.658-0.73-30.933q-3.1846 1.1937-4.9746 3.7358-1.7701 2.5432-1.7701 6.324 0 0.86204 0.08892 1.4154 0.10988 0.53041 0.22076 0.86204 0.11088 0.30966 0.19978 0.48646 0.10989 0.1768 0.10989 0.30966-1.1717 0-2.0778-0.22076-0.90702-0.24373-1.5263-0.75216-0.59735-0.50744-0.929-1.3485-0.30966-0.83907-0.30966-2.0777 0-1.5033 0.64031-2.9627 0.66328-1.4584 1.7911-2.7639 1.1498-1.3035 2.6761-2.4093 1.5483-1.1058 3.2944-1.9019 1.7681-0.81809 3.67-1.2596 1.9239-0.46548 3.8259-0.46548 0.50845 0 0.929 0.02198 0.44152 0.02198 0.88304 0.06593l0.39857 27.859 9.5297-27.727h3.1616l-12.58 33.742h-6.5229z"/>
 <path id="path8381" fill="url(#linearGradient9240)" d="m23.026 43.659-0.73-30.932q-3.1846 1.1937-4.9746 3.7358-1.7701 2.5432-1.7701 6.324 0 0.86204 0.08892 1.4154 0.10988 0.53041 0.22076 0.86204 0.11088 0.30965 0.19978 0.48646 0.10989 0.1768 0.10989 0.30966-1.1717 0-2.0778-0.22075-0.90701-0.24373-1.5263-0.75216-0.59735-0.50744-0.929-1.3485-0.30966-0.83907-0.30966-2.0777 0-1.5033 0.64031-2.9627 0.66328-1.4584 1.7911-2.7639 1.1498-1.3035 2.6761-2.4093 1.5483-1.1058 3.2944-1.9019 1.7681-0.81809 3.67-1.2596 1.9239-0.46548 3.8259-0.46548 0.50845 0 0.929 0.021982 0.44152 0.021982 0.88304 0.065932l0.39857 27.859 9.5297-27.727h3.1616l-12.58 33.742h-6.5229z"/>
</svg>
