<?xml version="1.0" encoding="UTF-8" standalone="no"?>
<!-- Created with Inkscape (http://www.inkscape.org/) -->

<svg
   xmlns:dc="http://purl.org/dc/elements/1.1/"
   xmlns:cc="http://creativecommons.org/ns#"
   xmlns:rdf="http://www.w3.org/1999/02/22-rdf-syntax-ns#"
   xmlns:svg="http://www.w3.org/2000/svg"
   xmlns="http://www.w3.org/2000/svg"
   xmlns:xlink="http://www.w3.org/1999/xlink"
   xmlns:sodipodi="http://sodipodi.sourceforge.net/DTD/sodipodi-0.dtd"
   xmlns:inkscape="http://www.inkscape.org/namespaces/inkscape"
   version="1.1"
   id="svg2"
   width="64"
   height="64"
   viewBox="0 0 64 64"
   sodipodi:docname="64.svg"
   inkscape:export-filename="C:\Users\tsvi\Desktop\rect3959.png"
   inkscape:export-xdpi="200"
   inkscape:export-ydpi="200"
   inkscape:version="0.92.3 (2405546, 2018-03-11)">
  <metadata
     id="metadata8">
    <rdf:RDF>
      <cc:Work
         rdf:about="">
        <dc:format>image/svg+xml</dc:format>
        <dc:type
           rdf:resource="http://purl.org/dc/dcmitype/StillImage" />
        <dc:title />
      </cc:Work>
    </rdf:RDF>
  </metadata>
  <defs
     id="defs6">
    <linearGradient
       inkscape:collect="always"
       id="linearGradient4006">
      <stop
         style="stop-color:#ffffff;stop-opacity:0.99504948"
         offset="0"
         id="stop3998" />
      <stop
         id="stop4000"
         offset="0.10505073"
         style="stop-color:#ffffff;stop-opacity:0.23267327" />
      <stop
         style="stop-color:#ffffff;stop-opacity:0.26732674"
         offset="0.87380993"
         id="stop4002" />
      <stop
         style="stop-color:#ffffff;stop-opacity:1"
         offset="1"
         id="stop4004" />
    </linearGradient>
    <linearGradient
       inkscape:collect="always"
       id="linearGradient3995">
      <stop
         style="stop-color:#3689e6;stop-opacity:1"
         offset="0"
         id="stop3991" />
      <stop
         style="stop-color:#3689e6;stop-opacity:0"
         offset="1"
         id="stop3993" />
    </linearGradient>
    <linearGradient
       inkscape:collect="always"
       id="linearGradient3983">
      <stop
         style="stop-color:#d4d4d4;stop-opacity:1"
         offset="0"
         id="stop3979" />
      <stop
         style="stop-color:#fafafa;stop-opacity:1"
         offset="1"
         id="stop3981" />
    </linearGradient>
    <linearGradient
       inkscape:collect="always"
       id="linearGradient3965">
      <stop
         style="stop-color:#7239b3;stop-opacity:1;"
         offset="0"
         id="stop3961" />
      <stop
         style="stop-color:#a56de2;stop-opacity:1"
         offset="1"
         id="stop3963" />
    </linearGradient>
    <linearGradient
       inkscape:collect="always"
       xlink:href="#linearGradient3965"
       id="linearGradient3967"
       x1="140.54086"
       y1="215.2238"
       x2="140.54086"
       y2="58.441864"
       gradientUnits="userSpaceOnUse"
       gradientTransform="matrix(0.2266942,0,0,0.2266942,-1.0480997,3.9811226)" />
    <linearGradient
       inkscape:collect="always"
       xlink:href="#linearGradient3983"
       id="linearGradient3985"
       x1="70"
       y1="119"
       x2="70"
       y2="24"
       gradientUnits="userSpaceOnUse"
       gradientTransform="matrix(0.52631578,0,0,0.52631578,-3.5263176,-3.6355588)" />
    <linearGradient
       inkscape:collect="always"
       xlink:href="#linearGradient3995"
       id="linearGradient3997"
       x1="55"
       y1="75.087006"
       x2="55"
       y2="45.541245"
       gradientUnits="userSpaceOnUse"
       gradientTransform="matrix(0.52631578,0,0,0.52631578,-5.1172804,-2.5824704)" />
    <filter
       inkscape:collect="always"
       style="color-interpolation-filters:sRGB"
       id="filter4080"
       x="-0.053534791"
       width="1.1070696"
       y="-1.0771201"
       height="3.1542404">
      <feGaussianBlur
         inkscape:collect="always"
         stdDeviation="2.2949574"
         id="feGaussianBlur4082" />
    </filter>
    <linearGradient
       inkscape:collect="always"
       xlink:href="#linearGradient3983"
       id="linearGradient4234"
       gradientUnits="userSpaceOnUse"
       x1="66.488136"
       y1="119"
       x2="66.488136"
       y2="23"
       gradientTransform="matrix(0.52631578,0,0,0.52631578,-1.6842102,-3.6355588)" />
    <linearGradient
       inkscape:collect="always"
       xlink:href="#linearGradient4006"
       id="linearGradient3996"
       x1="28.266741"
       y1="59.260113"
       x2="28.266741"
       y2="8.4544487"
       gradientUnits="userSpaceOnUse" />
  </defs>
  <sodipodi:namedview
     pagecolor="#ffffff"
     bordercolor="#666666"
     borderopacity="1"
     objecttolerance="10"
     gridtolerance="10"
     guidetolerance="10"
     inkscape:pageopacity="0"
     inkscape:pageshadow="2"
     inkscape:window-width="1920"
     inkscape:window-height="986"
     id="namedview4"
     showgrid="true"
     showguides="true"
     inkscape:guide-bbox="true"
     inkscape:snap-global="false"
     inkscape:zoom="14.407842"
     inkscape:cx="30.643634"
     inkscape:cy="21.957015"
     inkscape:window-x="-11"
     inkscape:window-y="-11"
     inkscape:window-maximized="1"
     inkscape:current-layer="svg2">
    <inkscape:grid
       type="xygrid"
       id="grid3969" />
    <sodipodi:guide
       position="9,4"
       orientation="0,1"
       id="guide3971"
       inkscape:locked="false" />
    <sodipodi:guide
       position="7,56"
       orientation="0,1"
       id="guide3973"
       inkscape:locked="false" />
  </sodipodi:namedview>
  <rect
     style="opacity:0.6;vector-effect:none;fill:#000000;fill-opacity:1;fill-rule:nonzero;stroke:none;stroke-width:2;stroke-linecap:round;stroke-linejoin:round;stroke-miterlimit:4;stroke-dasharray:none;stroke-dashoffset:0;stroke-opacity:0.99504945;paint-order:markers stroke fill;filter:url(#filter4080)"
     id="rect4030"
     width="102.88445"
     height="5.1135406"
     x="12.557774"
     y="116.34113"
     ry="2.5567703"
     transform="matrix(0.49166813,0,0,0.54499452,0.53323893,-5.8564228)" />
  <rect
     style="opacity:1;vector-effect:none;fill:url(#linearGradient3985);fill-opacity:1;fill-rule:nonzero;stroke:#121212;stroke-width:2;stroke-linecap:round;stroke-linejoin:round;stroke-miterlimit:4;stroke-dasharray:none;stroke-dashoffset:0;stroke-opacity:0.49009902;paint-order:markers stroke fill"
     id="rect3977"
     width="50"
     height="50"
     x="7"
     y="8.9960222"
     ry="3.3564565" />
  <path
     style="opacity:1;vector-effect:none;fill:url(#linearGradient4234);fill-opacity:1;fill-rule:nonzero;stroke:url(#linearGradient3996);stroke-width:2;stroke-linecap:round;stroke-linejoin:round;stroke-miterlimit:4;stroke-dasharray:none;stroke-dashoffset:0;stroke-opacity:0.95652173;paint-order:markers stroke fill"
     d="M 10.357422 9.9960938 C 9.0346476 9.9960936 8 11.028789 8 12.351562 L 8 55.638672 C 8 56.961446 9.0346476 57.996094 10.357422 57.996094 L 53.642578 57.996094 C 54.965352 57.996094 56 56.961446 56 55.638672 L 56 12.351562 C 56 11.028788 54.965352 9.9960938 53.642578 9.9960938 L 10.357422 9.9960938 z "
     id="rect4219" />
  <path
     sodipodi:nodetypes="cssscsscccscccccccccsscc"
     inkscape:connector-curvature="0"
     id="path4084"
     d="m 31.661477,17.777356 c -1.382101,0.0012 -2.303327,0.09825 -3.163539,0.225808 -8.236462,1.221347 -15.514586,6.292355 -13.202609,16.884546 3.287385,15.060972 27.773432,6.178195 28.122632,4.429496 0.140516,-0.703658 0.317737,-2.199369 0.254879,-2.418188 -0.534485,0.651365 -2.650206,1.314215 -3.364379,1.541591 -0.582305,0.185397 -17.953374,6.172933 -20.933044,-4.277566 -1.136669,-3.986603 -0.301202,-9.480825 6.195863,-12.761237 l 0.871356,-0.403799 0.03144,0.927587 c 0.03441,1.015322 0.754468,31.360571 0.754468,31.795634 v 0.268758 l 3.533236,-0.03232 3.533247,-0.03189 6.677737,-17.893791 c 3.672647,-9.841549 6.680027,-17.935956 6.683053,-17.987653 0.0032,-0.05169 -0.763006,-0.07911 -1.70198,-0.06066 l -1.707289,0.03365 -5.032879,14.648341 c -2.768231,8.056712 -5.042152,14.640325 -5.0528,14.629747 -0.01063,-0.01058 -0.112695,-6.62962 -0.227137,-14.709002 -0.114442,-8.079379 -0.232779,-14.717369 -0.263,-14.750619 -0.03021,-0.03325 -0.934373,-0.0594 -2.009252,-0.05844 z"
     style="opacity:0.15;vector-effect:none;fill:#000000;fill-opacity:0.98695655;fill-rule:nonzero;stroke:none;stroke-width:0.85679704;stroke-linecap:round;stroke-linejoin:round;stroke-miterlimit:4;stroke-dasharray:none;stroke-dashoffset:0;stroke-opacity:1;paint-order:fill markers stroke" />
  <path
     style="opacity:1;vector-effect:none;fill:url(#linearGradient3967);fill-opacity:1;fill-rule:nonzero;stroke:none;stroke-width:0.85679704;stroke-linecap:round;stroke-linejoin:round;stroke-miterlimit:4;stroke-dasharray:none;stroke-dashoffset:0;stroke-opacity:1;paint-order:fill markers stroke"
     d="m 31.680509,16.828457 c -1.382101,0.0012 -2.303327,0.09825 -3.163539,0.225808 -8.236462,1.221347 -15.514586,6.292355 -13.202609,16.884546 3.287385,15.060971 27.773431,6.178195 28.122631,4.429496 0.140516,-0.703659 0.317738,-2.19937 0.254879,-2.418188 -0.534484,0.651365 -2.650205,1.314215 -3.364379,1.541591 -0.582305,0.185397 -17.953373,6.172933 -20.933044,-4.277566 -1.136669,-3.986604 -0.301201,-9.480825 6.195864,-12.761237 l 0.871356,-0.403799 0.03144,0.927586 c 0.03441,1.015323 0.754467,31.36057 0.754467,31.795633 v 0.268758 l 3.533237,-0.03232 3.533247,-0.0319 6.677737,-17.89379 c 3.672647,-9.841549 6.680027,-17.935955 6.683053,-17.987653 0.0032,-0.05169 -0.763006,-0.07911 -1.70198,-0.06066 l -1.707293,0.03366 -5.032879,14.648341 c -2.768232,8.056712 -5.042153,14.640325 -5.0528,14.629747 -0.01063,-0.01059 -0.112695,-6.62962 -0.227137,-14.709002 -0.114443,-8.079379 -0.232779,-14.71737 -0.263,-14.75062 -0.03021,-0.03325 -0.934374,-0.05939 -2.009252,-0.05844 z"
     id="rect3958"
     inkscape:connector-curvature="0"
     sodipodi:nodetypes="cssscsscccscccccccccsscc" />
  <path
     sodipodi:nodetypes="ssscsscs"
     inkscape:connector-curvature="0"
     id="path3987"
     d="m 28.51697,17.054265 c -8.236462,1.221347 -15.514586,6.292355 -13.202609,16.884546 3.287385,15.060971 27.773431,6.178195 28.122631,4.429496 0.140516,-0.703659 0.317738,-2.19937 0.254879,-2.418188 -0.534484,0.651365 -2.650205,1.314215 -3.364379,1.541591 -0.582305,0.185397 -17.953373,6.172933 -20.933044,-4.277566 -1.136669,-3.986604 -0.301201,-9.480825 6.195864,-12.761237 0,0 3.78687,-3.526199 2.926658,-3.398642 z"
     style="opacity:1;vector-effect:none;fill:url(#linearGradient3997);fill-opacity:1;fill-rule:nonzero;stroke:none;stroke-width:0.85679704;stroke-linecap:round;stroke-linejoin:round;stroke-miterlimit:4;stroke-dasharray:none;stroke-dashoffset:0;stroke-opacity:1;paint-order:fill markers stroke" />
  <g
     transform="translate(0.3257909,-62.651868)"
     id="g4106"
     style="fill:#ffec28;fill-opacity:0.98695655" />
  <path
     style="opacity:0.15;vector-effect:none;fill:#000000;fill-opacity:1;fill-rule:nonzero;stroke:none;stroke-width:0.85679704;stroke-linecap:round;stroke-linejoin:round;stroke-miterlimit:4;stroke-dasharray:none;stroke-dashoffset:0;stroke-opacity:1;paint-order:fill markers stroke"
     d="M 39.664062 38.644531 C 39.040941 38.840678 38.012894 39.137262 36.556641 39.464844 C 36.182704 40.546991 35.702263 41.944591 35.476562 42.59375 C 36.567399 42.339492 37.573038 42.048256 38.505859 41.746094 L 39.664062 38.644531 z M 34.080078 39.941406 C 31.848531 40.290769 29.307023 40.471122 26.947266 40.125 C 26.984247 41.692886 26.9956 42.123603 27.027344 43.480469 C 29.409315 43.586574 31.855492 43.312957 34.126953 42.869141 C 34.117113 42.302481 34.095059 40.894695 34.080078 39.941406 z "
     id="path4008" />
  <path
     style="opacity:1;vector-effect:none;fill:url(#linearGradient3997);fill-opacity:1;fill-rule:nonzero;stroke:none;stroke-width:0.85679704;stroke-linecap:round;stroke-linejoin:round;stroke-miterlimit:4;stroke-dasharray:none;stroke-dashoffset:0;stroke-opacity:1;paint-order:fill markers stroke"
     d="m 28.51697,17.054265 c -8.236462,1.221347 -15.514586,6.292355 -13.202609,16.884546 3.287385,15.060971 27.773431,6.178195 28.122631,4.429496 0.140516,-0.703659 0.317738,-2.19937 0.254879,-2.418188 -0.534484,0.651365 -2.650205,1.314215 -3.364379,1.541591 -0.582305,0.185397 -17.953373,6.172933 -20.933044,-4.277566 -1.136669,-3.986604 -0.301201,-9.480825 6.195864,-12.761237 0,0 3.78687,-3.526199 2.926658,-3.398642 z"
     id="path4010"
     inkscape:connector-curvature="0"
     sodipodi:nodetypes="ssscsscs" />
</svg>
